# xmcd
#
# Track frame offsets:
#	150
#	16633
#	30249
#	42997
#	59804
#	74616
#	85928
#	98453
#	114435
#	127368
#	143425
#	162050
#	180462
#	193663
#	215564
#
# Disc length: 2906 seconds
#
# Revision: 0
# Processed by: cddbd v1.5.2PL0 Copyright (c) Steve Scherf et al.
# Submitted via: EasyCDDAExtractor 2011.0.0.0
#
DISCID=c90b580f
DTITLE=Aly and AJ - Insomniatic
DYEAR=1900
DGENRE=
TTITLE0=Potential Breakup Song
TTITLE1=Bullseye
TTITLE2=Closure
TTITLE3=Division
TTITLE4=Like It Or Leave It
TTITLE5=Like Whoa
TTITLE6=Insomniatic
TTITLE7=Silence
TTITLE8=If I Could Have You Back
TTITLE9=Blush
TTITLE10=Flattery
TTITLE11=I'm Here
TTITLE12=Chemicals React
TTITLE13=Careful With Words
TTITLE14=Data
EXTD=
EXTT0=
EXTT1=
EXTT2=
EXTT3=
EXTT4=
EXTT5=
EXTT6=
EXTT7=
EXTT8=
EXTT9=
EXTT10=
EXTT11=
EXTT12=
EXTT13=
EXTT14=
PLAYORDER=
